<?xml version="1.0" standalone="no"?>
<!DOCTYPE svg PUBLIC "-//W3C//DTD SVG 20010904//EN"
 "http://www.w3.org/TR/2001/REC-SVG-20010904/DTD/svg10.dtd">
<svg version="1.0" xmlns="http://www.w3.org/2000/svg"
 width="431.000000pt" height="320.000000pt" viewBox="0 0 431.000000 320.000000"
 preserveAspectRatio="xMidYMid meet">

<g transform="translate(0.000000,320.000000) scale(0.100000,-0.100000)"
fill="#000000" stroke="none">
<path d="M1670 3145 c-58 -20 -148 -57 -200 -82 -82 -39 -108 -59 -190 -142
-87 -86 -102 -107 -153 -211 -80 -163 -87 -198 -94 -449 -6 -206 -7 -214 -29
-237 -20 -19 -24 -33 -24 -86 1 -155 43 -318 105 -413 19 -28 36 -70 40 -95
10 -70 23 -107 77 -213 43 -86 48 -103 43 -140 -4 -26 0 -69 9 -110 30 -127
35 -119 -116 -170 -252 -85 -793 -289 -862 -325 -72 -37 -113 -81 -146 -157
-24 -54 -51 -145 -42 -145 4 0 17 33 29 73 41 133 92 192 213 242 169 71 903
335 931 335 15 0 18 -24 24 -202 6 -182 10 -219 42 -358 49 -214 50 -221 58
-228 4 -4 4 4 1 18 -72 307 -84 385 -90 597 -4 128 -12 242 -22 287 -8 41 -14
93 -12 116 l3 42 130 -142 c223 -242 295 -290 452 -298 98 -5 160 11 282 73
107 54 257 151 317 207 90 83 121 144 154 308 11 52 26 122 33 154 l12 59 62
1 c78 1 91 13 153 137 62 122 79 188 87 325 6 120 5 124 -55 164 -21 14 -22
18 -12 90 14 107 12 268 -4 390 -36 264 -91 325 -461 510 -183 92 -225 102
-450 107 l-190 4 -105 -36z m435 14 c103 -13 191 -42 320 -107 362 -180 406
-234 440 -522 19 -156 19 -239 1 -358 -11 -71 -20 -100 -37 -118 -28 -30 -18
-31 20 -3 23 17 33 19 50 10 37 -20 44 -48 37 -145 -10 -134 -31 -209 -89
-326 -45 -91 -56 -106 -85 -115 -44 -15 -102 -7 -102 13 0 11 -3 13 -10 6 -5
-5 -26 -82 -45 -169 -51 -231 -54 -242 -97 -306 -43 -64 -112 -120 -265 -215
-218 -134 -353 -168 -496 -124 -86 27 -158 82 -290 220 -126 133 -181 203
-236 303 -62 113 -78 175 -91 342 -6 83 -15 193 -19 245 -9 95 -4 195 23 485
19 199 39 285 80 338 68 90 211 157 376 178 44 5 222 10 397 12 273 1 327 -1
380 -15 139 -38 207 -96 238 -201 13 -44 39 -238 76 -577 6 -58 15 -112 20
-120 6 -10 8 -3 4 20 -3 19 -19 159 -35 310 -17 151 -35 298 -41 325 -15 64
-49 132 -85 169 -44 44 -143 85 -237 98 -118 16 -653 4 -772 -17 -171 -30
-310 -118 -360 -228 -27 -60 -50 -200 -65 -407 -12 -174 -19 -220 -31 -220
-23 0 -29 51 -29 272 0 276 9 327 78 471 79 165 162 260 298 342 62 38 230
106 316 129 65 18 240 20 363 5z m-1066 -1176 c8 -21 20 -46 29 -55 18 -22 38
-206 23 -221 -7 -7 -5 -14 4 -21 18 -13 34 -166 18 -166 -40 0 -99 175 -114
337 -8 89 -8 127 1 142 15 30 24 26 39 -16z"/>
<path d="M2065 2237 c-38 -17 -59 -42 -52 -61 5 -11 47 -14 237 -15 256 0 265
3 166 53 -53 27 -66 30 -189 33 -97 3 -140 0 -162 -10z m226 -6 c53 -6 103
-18 128 -30 23 -12 41 -23 41 -24 0 -1 -99 -2 -220 -2 -121 0 -220 3 -220 6 0
16 45 44 83 50 62 10 92 10 188 0z"/>
<path d="M1370 2221 c-25 -4 -56 -13 -70 -20 -28 -15 -90 -71 -90 -82 0 -3 39
0 88 8 56 10 130 13 209 10 67 -2 127 -1 133 3 19 12 3 44 -30 63 -34 20 -166
30 -240 18z m229 -26 c29 -14 46 -41 33 -48 -4 -2 -45 0 -92 5 -78 9 -198 1
-278 -19 -41 -10 -14 24 41 52 45 22 63 25 159 25 76 0 118 -4 137 -15z"/>
<path d="M2137 2111 c-48 -10 -59 -21 -21 -22 l29 -1 -35 -15 c-45 -19 -80
-52 -80 -74 0 -26 52 -39 155 -39 80 0 98 3 146 28 30 15 54 33 54 41 0 7 -14
21 -31 30 -17 9 -44 23 -60 33 -36 20 -107 29 -157 19z m132 -22 c31 -11 43
-29 19 -29 -7 0 -38 9 -68 20 -54 18 -54 19 -19 19 20 1 50 -4 68 -10z m-29
-34 c8 -9 10 -28 6 -50 -7 -34 -8 -35 -51 -35 -34 0 -47 5 -55 19 -11 22 -13
64 -3 74 13 13 90 7 103 -8z m-119 -45 c4 -19 6 -36 4 -38 -6 -6 -74 18 -80
28 -8 12 36 51 54 48 9 -2 18 -19 22 -38z m233 34 c9 -3 16 -10 16 -15 0 -8
-91 -59 -105 -59 -10 0 -5 56 7 68 13 13 56 16 82 6z"/>
<path d="M2180 2036 c0 -2 8 -10 18 -17 15 -13 16 -12 3 4 -13 16 -21 21 -21
13z"/>
<path d="M1444 2079 c-3 -6 -26 -19 -51 -30 -25 -11 -56 -28 -69 -38 l-24 -19
24 -15 c13 -9 49 -23 82 -33 50 -14 67 -15 126 -4 37 6 78 20 91 30 l22 18
-25 26 c-13 15 -44 33 -70 41 -25 7 -40 14 -35 14 6 1 3 6 -5 11 -20 13 -57
13 -66 -1z m26 -9 c0 -5 -5 -10 -11 -10 -5 0 -7 5 -4 10 3 6 8 10 11 10 2 0 4
-4 4 -10z m55 -29 c3 -6 2 -28 -1 -51 l-7 -41 -46 3 -46 3 -3 42 c-2 33 1 42
15 46 33 8 82 7 88 -2z m65 -16 c40 -21 38 -42 -6 -60 -20 -8 -38 -15 -40 -15
-2 0 -4 20 -4 45 0 49 6 53 50 30z m-190 -14 c0 -11 3 -26 6 -35 9 -23 -28
-21 -56 2 l-23 19 24 16 c31 22 49 21 49 -2z"/>
<path d="M2849 1997 c-44 -39 -104 -107 -94 -107 4 0 24 19 45 41 21 23 43 39
49 35 6 -4 12 -33 12 -64 1 -46 3 -51 9 -27 4 17 5 49 2 72 -3 27 0 49 8 58
24 28 5 23 -31 -8z"/>
<path d="M2732 1828 c-7 -7 -12 -16 -12 -22 0 -6 5 -5 12 2 20 20 52 13 72
-14 15 -22 16 -30 7 -51 -7 -14 -9 -28 -7 -31 3 -2 11 7 17 21 26 58 -48 136
-89 95z"/>
<path d="M1969 1637 c4 -63 -11 -77 -87 -77 -38 0 -72 -8 -109 -26 -55 -26
-82 -25 -113 1 -8 8 -37 23 -63 34 -47 20 -48 21 -42 58 5 33 4 35 -6 16 -22
-42 -4 -65 78 -106 43 -20 85 -37 93 -37 8 0 33 9 54 21 22 11 64 23 95 26 92
7 99 10 111 47 6 19 8 46 4 60 -11 45 -19 36 -15 -17z"/>
<path d="M2744 1665 c-10 -8 -14 -14 -9 -14 6 0 19 6 29 14 11 8 15 15 10 15
-6 0 -19 -7 -30 -15z"/>
<path d="M1810 1366 c-32 -7 -74 -9 -100 -4 -72 11 -135 9 -196 -7 -66 -17
-79 -25 -40 -25 15 0 44 -13 64 -29 65 -51 143 -73 278 -79 l122 -5 57 33 c31
18 66 43 78 55 12 13 33 25 47 28 17 3 12 5 -15 6 -23 0 -45 5 -50 10 -11 11
-126 31 -165 30 -14 -1 -50 -7 -80 -13z m-71 -16 c207 5 281 4 291 -6 8 -8
-21 -14 -97 -22 -139 -15 -190 -15 -290 3 -46 8 -89 12 -98 9 -8 -4 -15 -1
-15 4 0 12 62 20 99 14 13 -3 62 -4 110 -2z m46 -45 c66 0 155 4 198 8 48 5
77 4 77 -2 0 -5 -30 -26 -67 -47 l-66 -37 -101 7 c-56 3 -123 12 -151 20 -127
34 -174 76 -67 60 31 -5 111 -9 177 -9z"/>
<path d="M2474 1133 c-95 -111 -106 -127 -35 -54 62 64 100 111 88 111 -2 0
-25 -26 -53 -57z"/>
<path d="M1635 782 c6 -6 24 -13 40 -17 21 -4 25 -3 15 3 -24 15 -67 26 -55
14z"/>
<path d="M1758 743 c6 -2 18 -2 25 0 6 3 1 5 -13 5 -14 0 -19 -2 -12 -5z"/>
<path d="M1050 1780 c0 -22 2 -40 4 -40 2 0 6 18 8 40 2 22 0 40 -4 40 -5 0
-8 -18 -8 -40z"/>
<path d="M2676 1261 c-9 -14 -25 -148 -26 -212 l0 -55 83 -80 c185 -179 195
-185 442 -279 166 -63 533 -239 761 -367 191 -106 335 -178 354 -178 8 1 -25
20 -75 44 -49 23 -135 69 -190 101 -196 113 -691 354 -872 424 -99 38 -200 81
-224 96 -24 15 -94 78 -157 140 l-114 112 7 89 c4 49 11 107 15 129 9 40 7 55
-4 36z"/>
<path d="M2662 910 c0 -14 2 -19 5 -12 2 6 2 18 0 25 -3 6 -5 1 -5 -13z"/>
<path d="M2647 857 c-11 -29 -9 -43 4 -30 6 6 9 19 7 29 -3 18 -4 18 -11 1z"/>
<path d="M2632 710 c0 -14 2 -19 5 -12 2 6 2 18 0 25 -3 6 -5 1 -5 -13z"/>
<path d="M2610 589 c0 -5 5 -7 10 -4 6 3 10 8 10 11 0 2 -4 4 -10 4 -5 0 -10
-5 -10 -11z"/>
<path d="M2581 464 c0 -11 3 -14 6 -6 3 7 2 16 -1 19 -3 4 -6 -2 -5 -13z"/>
<path d="M2552 345 c0 -16 2 -22 5 -12 2 9 2 23 0 30 -3 6 -5 -1 -5 -18z"/>
</g>
</svg>
